<?xml version="1.0"?>
<svg xmlns="http://www.w3.org/2000/svg" viewBox="0 0 64 64" width="512" height="512"><g id="Global"><circle cx="30" cy="34" r="27" style="fill:#57a4ff"/><path d="M61,19c0,2.99-1.83,7.16-4.25,11.37A119.445,119.445,0,0,1,48.93,42C46.67,45,45,47,45,47s-1.67-2-3.93-5C36.34,35.71,29,24.99,29,19A15.969,15.969,0,0,1,34.07,7.31h.01A16,16,0,0,1,61,19Z" style="fill:#ed1c24"/><path d="M56.75,30.37A25.535,25.535,0,0,1,57,34a26.674,26.674,0,0,1-2.29,10.88l-1.16-1.92A2.01,2.01,0,0,0,51.84,42H48.93A119.445,119.445,0,0,0,56.75,30.37Z" style="fill:#4c90df"/><path d="M53.55,42.96l1.16,1.92A27,27,0,0,1,30,61c-.67,0-1.34-.02-2-.08V57l-1.29-2.58a1.982,1.982,0,0,1,.51-2.43l4.5-3.76a1,1,0,0,1,.64-.23h3.95a2.006,2.006,0,0,0,1.97-1.67l.44-2.66A2.006,2.006,0,0,1,40.69,42h.38C43.33,45,45,47,45,47s1.67-2,3.93-5h2.91A2.01,2.01,0,0,1,53.55,42.96Z" style="fill:#7ed63e"/><circle cx="45" cy="19" r="8" style="fill:#d1e7f8"/><path d="M27,30v3a4,4,0,0,1-4,4H22a2.013,2.013,0,0,0-1.6.8l-2,2.67a1.969,1.969,0,0,0-.4,1.2v7.92a1,1,0,0,1-1.71.7l-1.65-1.65a3.018,3.018,0,0,1-.82-1.53l-.5-2.5A2,2,0,0,0,11.36,43H4.54A27.016,27.016,0,0,1,23,7.92V11a2.006,2.006,0,0,1-2,2,2.015,2.015,0,0,0-2,2v5a2.006,2.006,0,0,1-2,2H13a2.006,2.006,0,0,0-2,2,2.015,2.015,0,0,0,2,2H23A4,4,0,0,1,27,30Z" style="fill:#5eac24"/><path d="M13.82,47.11a3.018,3.018,0,0,0,.82,1.53l1.65,1.65a1,1,0,0,0,1.71-.7V42.931c-1.523.647-3.084,1.221-4.666,1.751Z" style="fill:none"/><path d="M53.335,5.36a63.557,63.557,0,0,1-3.214,7.5,8,8,0,0,1-8.9,13.2A64.329,64.329,0,0,1,34.6,32.615C36.737,36.068,39.123,39.41,41.07,42,43.33,45,45,47,45,47s1.67-2,3.93-5a119.445,119.445,0,0,0,7.82-11.63C59.17,26.16,61,21.99,61,19A15.97,15.97,0,0,0,53.335,5.36Z" style="fill:#cf1820"/><path d="M45,27a8,8,0,0,0,5.121-14.145,64.118,64.118,0,0,1-8.9,13.2A7.959,7.959,0,0,0,45,27Z" style="fill:#b7cad9"/><path d="M18,42.931V49.59a1,1,0,0,1-1.71.7l-1.65-1.65a3.018,3.018,0,0,1-.82-1.53l-.486-2.428a63.73,63.73,0,0,1-7.192,1.962A26.971,26.971,0,0,0,28,60.92V57l-1.29-2.58a1.982,1.982,0,0,1,.51-2.43l4.5-3.76a1,1,0,0,1,.64-.23h3.95a2.006,2.006,0,0,0,1.97-1.67l.44-2.66A2.006,2.006,0,0,1,40.69,42h.38c-1.947-2.59-4.333-5.932-6.471-9.385A64.005,64.005,0,0,1,18,42.931Z" style="fill:#4c90df"/><path d="M14.64,48.64l1.65,1.65a1,1,0,0,0,1.71-.7V44.213q-2.082,1.308-4.268,2.459l.088.438A3.018,3.018,0,0,0,14.64,48.64Z" style="fill:none"/><path d="M45,28a9,9,0,1,0-9-9A9.011,9.011,0,0,0,45,28Zm0-16a7,7,0,1,1-7,7A7.008,7.008,0,0,1,45,12Z" style="fill:#231f20"/><path d="M62,19A16.972,16.972,0,0,0,33.772,6.269,26.877,26.877,0,0,0,30,6,27.991,27.991,0,0,0,3.61,43.347c.008.02.012.04.02.059A28,28,0,0,0,58,34a26.883,26.883,0,0,0-.223-3.424C60.189,26.325,62,22.1,62,19Zm-2,0c0,7.292-11.838,22.489-15,26.417C41.838,41.489,30,26.3,30,19a15,15,0,0,1,30,0ZM22,9.265V11a1,1,0,0,1-1,1,3.015,3.015,0,0,0-3,3v5a1,1,0,0,1-1,1H13a3,3,0,0,0-3,3,3.015,3.015,0,0,0,3,3H23a3,3,0,0,1,3,3v3a3,3,0,0,1-3,3H22a3.032,3.032,0,0,0-2.4,1.2l-2,2.663A2.993,2.993,0,0,0,17,41.67l0,7.913-1.65-1.65a2.026,2.026,0,0,1-.547-1.019l-.5-2.5A3.011,3.011,0,0,0,11.36,42H5.265A25.983,25.983,0,0,1,22,9.265ZM6,44H11.36a1,1,0,0,1,.979.806l.5,2.506a4.009,4.009,0,0,0,1.092,2.035L15.583,51A2,2,0,0,0,19,49.59V41.67a.972.972,0,0,1,.2-.6l2-2.665A1.017,1.017,0,0,1,22,38h1a5.006,5.006,0,0,0,5-5V30a5.006,5.006,0,0,0-5-5H13a.974.974,0,0,1-.712-.306A.957.957,0,0,1,12,24a1,1,0,0,1,1-1h4a3,3,0,0,0,3-3V15a.974.974,0,0,1,.306-.712A.957.957,0,0,1,21,14a3,3,0,0,0,3-3V8.707A25.923,25.923,0,0,1,30,8c.683,0,1.345.025,2,.074A16.913,16.913,0,0,0,28,19c0,5.9,6.542,15.847,11.326,22.337a2.98,2.98,0,0,0-1.592,2.169l-.441,2.66A1,1,0,0,1,36.31,47H32.36a2.006,2.006,0,0,0-1.281.462l-4.493,3.755a2.965,2.965,0,0,0-.771,3.65L27,57.236v2.586A26.064,26.064,0,0,1,6,44ZM30,60c-.335,0-.668-.013-1-.025V57a1,1,0,0,0-.105-.447L27.6,53.969a.982.982,0,0,1,.259-1.211L32.36,49h3.95a2.989,2.989,0,0,0,2.957-2.506l.44-2.66a1,1,0,0,1,.877-.814c1.981,2.614,3.455,4.389,3.648,4.621a1,1,0,0,0,1.536,0c.194-.233,1.674-2.016,3.663-4.641H51.84a1.008,1.008,0,0,1,.854.477l.884,1.463A26.03,26.03,0,0,1,30,60ZM56,34a25.887,25.887,0,0,1-1.479,8.633l-.118-.194A3.02,3.02,0,0,0,51.84,41h-.918c1.612-2.2,3.4-4.766,5.064-7.428C55.988,33.716,56,33.855,56,34Z" style="fill:#231f20"/></g></svg>
